<?xml version="1.0" encoding="utf-8"?>
<!-- Generator: Adobe Illustrator 19.0.0, SVG Export Plug-In . SVG Version: 6.00 Build 0)  -->
<svg version="1.1" id="Layer_1" xmlns="http://www.w3.org/2000/svg" xmlns:xlink="http://www.w3.org/1999/xlink" x="0px" y="0px"
	 viewBox="0 0 800 800" style="enable-background:new 0 0 800 800;" xml:space="preserve">
<style type="text/css">
	.st0{fill:#A7FFF7;}
	.st1{fill:url(#SVGID_1_);}
	.st2{opacity:0.8;fill:#FFFFFF;}
	.st3{opacity:0.9;}
	.st4{opacity:0.74;fill:#FFFFFF;}
	.st5{opacity:0.7;fill:#FFFFFF;}
	.st6{opacity:0.8;}
	.st7{opacity:0.86;fill:#FFFFFF;}
</style>
<g>
	<g>
		<path class="st0" d="M668.9,328.6c-23.7-4.4-24.9-10-60-29.3c-35.1-19.3-95-51.8-134.5-47.4C435,256.3,415,272,401,272
			c-14,0-37.5-19.2-77.1-22.7c-34.6-3.1-104.5,30.7-139.5,50c-35.1,19.3-31.2,22.8-54.9,27.2c0,0,97.2,156.6,267.2,147.5
			c5.3-0.3,10.6-0.1,15.7-0.2c0.5,0.1,1.1,0.2,1.8,0.2c126.8,0,186.3-66.2,205.3-89.6C648,355.3,668.9,328.6,668.9,328.6z"/>
		<path class="st0" d="M668.9,328.6c-23.7-4.4-24.9-10-60-29.3c-35.1-19.3-94.9-50.3-134.5-47.4c-39.7,3-59.5,20.2-73.5,20.2
			c-14,0-37.5-19.2-77.1-22.7c-34.6-3.1-104.5,30.7-139.5,50c-35.1,19.3-31.2,22.8-54.9,27.2c0,0,97.2,156.6,267.2,147.5
			c5.3-0.3,10.6-0.1,15.7-0.2c0.5,0.1,1.1,0.2,1.8,0.2c126.8,0,186.3-66.2,205.3-89.6C648,355.3,668.9,328.6,668.9,328.6z"/>
		
			<image style="overflow:visible;opacity:0.5;" width="2248" height="615" xlink:href="5B5A9A702237AB27.png"  transform="matrix(0.24 0 0 0.24 129.415 326.4658)">
		</image>
		<linearGradient id="SVGID_1_" gradientUnits="userSpaceOnUse" x1="398.7393" y1="362.1405" x2="400.2404" y2="262.065">
			<stop  offset="0" style="stop-color:#41BFA3"/>
			<stop  offset="0.8673" style="stop-color:#A7FFF7"/>
		</linearGradient>
		<path class="st1" d="M248,344.1c49.6-4.8,63.3-9.8,100.4-0.1c39.4,10.3,56.5,12.1,93.2,0.9c39.8-12.1,49.2-6.2,99.5-0.9
			c50.3,5.3,55.5,17.7,127.8-15.4c-23.7-4.4-27.3-11.4-62.4-30.7c-35.1-19.3-95.7-50.3-135.2-46c-37.4,4-57.3,20.3-71.4,20.1
			c-11.8-0.2-34.8-17.7-74.3-22.1c-39.5-4.4-108.2,31.2-143.3,50.5c-35.1,19.3-29,21.8-52.7,26.2C176.7,358.5,222.6,346.6,248,344.1
			z"/>
		
			<image style="overflow:visible;opacity:0.5;" width="2249" height="434" xlink:href="5B5A9A702237AB25.png"  transform="matrix(0.24 0 0 0.24 129.3921 249.0961)">
		</image>
		<path class="st2" d="M280.9,358.2c0,0-8.4,14.2-5.7,20.8c0.6,1.4,4.5-10.4,4.5-10.4L280.9,358.2z"/>
		<path class="st2" d="M289.1,360.8c0,0-6.9,9.6-4.7,14.1c0.5,0.9,3.7-7,3.7-7L289.1,360.8z"/>
		<path class="st2" d="M301.3,361.1c0,0-2.3,4.7-4.1,12.3c-1.8,7.6-4.1,15.2-4.1,15.2s-0.6-13.5,0-16.4
			C293.7,369.3,301.3,361.1,301.3,361.1z"/>
		<g class="st3">
			<path class="st4" d="M382.4,374.5c-2.9,5.3-6.4,5.7-6.4,5.7l-6-8.7h-12.7h-11.1c-6.4,2.9-11.1,2.9-11.7,8.8
				c-0.6,5.9-3.4,19.3,1.8,21.7c5.3,2.3,6.1-6.4,8.5,0c2.3,6.4,6.9,7.6,6.9,7.6l3.3-19c0,0-3.5-10.8,0-13.2c3.5-2.3,2.9-3.5,3.5,2.9
				c0.6,6.4-2.7,25.7,1.4,29.3c4.1,3.5,4.7-8.8,10.1-10.5c5.4-1.8,6-10.8,6-10.8V402c0,0,7.6,2.3,9.4,0c1.8-2.3,0-13.7,0-13.7l4.7-8
				v17.7c0,0,4.7,4.1,4.7-2.3c0-6.4,0.6-19.9,0-21.1C394.1,373.4,385.4,369.3,382.4,374.5z"/>
			<path class="st4" d="M457.8,379.7c-5-7.9,2.2,0.1-8.3-2.8c-10.5-2.8-5.7-3.5-16.9,0c-11.2,3.5-16.7,0.3-23.6-5.8v3.7
				c-0.1-0.8-0.1-1.4-0.1-1.4l-4.1,3.4l-6.4-5.7c-2.9,6.4-4.7,8.2-2.3,13.7c2.3,5.6,2.3,11.4,2.3,11.4l5.3-4.1c0,0,2.1-0.9,3.8-2.6
				c-0.9,6.4-2.1,14.1-2.9,19c-1.8,9.9,5.8-2.3,5.8-2.3v-9.9c0,0,4.7-1.8,5.3,0c0.6,1.8,6.4,4.7,6.4,4.7s0,0,0-4.7
				c0-6.8,2.9-11.4,2.9-11.4l0,13.7l5.8-5.4l4.1,5.4c0,0,5.6-4,7.5-6.8c4.4-6.7,11.9,4.5,11.9,4.5l4.2,5.7
				C458.5,402,463.7,389.1,457.8,379.7z"/>
		</g>
		<path class="st4" d="M455.5,403.9c-8.1,0-4.2-4-11.8,0.1c-7.6,4.1-12.1,0.5-15.1-0.9c-3-1.4-5.2,13.9,0,11.2
			c5.2-2.7,9.8-6.8,18.6-6.2C456,408.6,455.5,403.9,455.5,403.9z"/>
		<path class="st5" d="M467.4,367.4c2.9,3.4,8.9,13.4,4.8,17.6c-4.1,4.2-4.2,4.8-4.2,12c0,7.3-14.6,16.4,0,15.8
			c14.6-0.7,12.3-3,18.7-11.9c6.4-8.9,4.2-13.8,1.2-20.2c-2.9-6.4-10.2-7.9-10.2-7.9L467.4,367.4z"/>
		<path class="st5" d="M494.3,376.9c3.5,5.4,3.1,10.6,0.7,19.4c-2.3,8.8,6.1,1.7,8.5-4.5c2.2-5.7,2.2-5.7,1.9-13.1l-2.5-3.2l-2-4.3
			c0,0-13.6-10.8-13.6-5"/>
		<path class="st5" d="M521.9,368.8c2.5,3.8,2.2,7.5,0.5,13.8c-1.7,6.2,4.4,1.2,6-3.2c1.5-4,1.3-0.7,1.3-8.5l-2.4-2.6l-0.8-3.5
			c0,0-9.7-4.3-9.7-0.3"/>
		<g class="st6">
			<path class="st7" d="M344.4,263.5c-5.6-3.6-15.1-7-24-4.2c-6,1.9,0.2,1.4-12.7,7.9c-11.2,5.7-14.8,6.6-14.8,6.6
				c3.5,0,20.9,3.2,30-2.2c8.9-5.4,27.9-3.1,27.9-3.1L344.4,263.5z"/>
			<path class="st7" d="M288.9,271.7c-1.4,0.6-2.6,1-3.7,1.4c-5.6,2.2-7.4,2-14.2,4.6c-8.2,3.1-10.6,7.8-10.6,7.8s11.4-0.8,15-3.6
				C278.8,279.1,288.9,271.7,288.9,271.7z"/>
		</g>
	</g>
</g>
</svg>
